<svg width="379" height="380" viewBox="0 0 379 380" fill="none" xmlns="http://www.w3.org/2000/svg">
<path d="M189.333 376.107C139.99 376.044 92.6864 356.413 57.7976 321.521C22.9087 286.628 3.28348 239.321 3.22656 189.978C3.28918 140.641 22.9176 93.3426 57.8065 58.4578C92.6953 23.573 139.996 3.95015 189.333 3.89323C238.673 3.94447 285.977 23.5656 320.867 58.4516C355.757 93.3377 375.383 140.639 375.44 189.978C375.389 239.323 355.766 286.633 320.875 321.527C285.985 356.421 238.678 376.05 189.333 376.107ZM189.333 24.6075C145.492 24.6701 103.463 42.1125 72.46 73.1114C41.457 104.11 24.0092 146.137 23.941 189.978C23.9979 233.828 41.4407 275.865 72.4448 306.873C103.449 337.882 145.484 355.33 189.333 355.392C233.183 355.33 275.218 337.882 306.222 306.873C337.226 275.865 354.669 233.828 354.726 189.978C354.658 146.137 337.21 104.11 306.207 73.1114C275.204 42.1125 233.175 24.6701 189.333 24.6075Z" fill="#B3D57B" stroke="#B3D57B" stroke-width="4" stroke-miterlimit="10"/>
<path d="M274.083 88.2995H193.979V109.014H274.083V88.2995Z" fill="#B3D57B" stroke="#B3D57B" stroke-width="4" stroke-miterlimit="10"/>
<path d="M158.401 88.2995H78.2969V109.014H158.401V88.2995Z" fill="#B3D57B" stroke="#B3D57B" stroke-width="4" stroke-miterlimit="10"/>
<path d="M212.564 147.539H193.205C193.194 155.847 189.888 163.812 184.013 169.687C178.138 175.562 170.173 178.868 161.865 178.879C153.556 178.868 145.591 175.562 139.716 169.687C133.841 163.812 130.536 155.847 130.524 147.539H110.928V220.136H130.288V187.096C139.257 194.287 150.412 198.202 161.908 198.195C173.398 198.206 184.547 194.29 193.506 187.096V251.347H212.866V147.539H212.564Z" fill="#B3D57B" stroke="#B3D57B" stroke-width="4" stroke-miterlimit="10"/>
</svg>
