<svg width="94" height="94" viewBox="0 0 94 94" fill="none" xmlns="http://www.w3.org/2000/svg">
  <path d="M49.9955 34.8413V38.7072L49.2053 39.647L35.6745 55.805H49.9955V60.6107H28.6421V56.686L29.2668 55.9651L29.411 55.805L42.9365 39.647H29.2188V34.8413H49.9955Z" fill="#B3D57B"/>
  <path d="M47 93.1989C34.7511 93.1861 23.0076 88.3147 14.3463 79.6534C5.68509 70.9922 0.813625 59.2487 0.800903 46.9998C0.813625 34.751 5.68509 23.0075 14.3463 14.3462C23.0076 5.68497 34.7511 0.813503 47 0.800781C59.2484 0.814914 70.9911 5.68683 79.652 14.3478C88.3129 23.0087 93.1849 34.7514 93.199 46.9998C93.1849 59.2482 88.3129 70.9909 79.652 79.6519C70.9911 88.3128 59.2484 93.1847 47 93.1989ZM47 5.9429C36.1157 5.95844 25.6818 10.2891 17.9855 17.9854C10.2892 25.6817 5.95857 36.1156 5.94303 46.9998C5.95857 57.884 10.2892 68.318 17.9855 76.0143C25.6818 83.7106 36.1157 88.0412 47 88.0567C57.8842 88.0412 68.3181 83.7106 76.0144 76.0143C83.7107 68.318 88.0413 57.884 88.0569 46.9998C88.0413 36.1156 83.7107 25.6817 76.0144 17.9854C68.3181 10.2891 57.8842 5.95844 47 5.9429Z" fill="#B3D57B"/>
  <path d="M68.0383 21.7539H48.1533V26.896H68.0383V21.7539Z" fill="#B3D57B"/>
  <path d="M39.3216 21.7539H19.4365V26.896H39.3216V21.7539Z" fill="#B3D57B"/>
</svg>