<svg width="339" height="339" viewBox="0 0 339 339" fill="none" xmlns="http://www.w3.org/2000/svg">
<path d="M119.68 155.732H178.067V134.031H195.382V194.766H178.067V173.046H119.68V194.766H102.346V134.031H119.68V155.732Z" fill="#B3D57B" stroke="#B3D57B" stroke-width="4" stroke-miterlimit="10"/>
<path d="M169.333 335.781C125.202 335.735 82.8924 318.184 51.6874 286.979C20.4823 255.774 2.93121 213.464 2.88538 169.333C2.93121 125.203 20.4823 82.8928 51.6874 51.6877C82.8924 20.4827 125.202 2.93158 169.333 2.88574C213.462 2.93666 255.769 20.4893 286.973 51.6933C318.177 82.8972 335.73 125.204 335.781 169.333C335.73 213.462 318.177 255.769 286.973 286.973C255.769 318.177 213.462 335.73 169.333 335.781ZM169.333 21.4119C130.119 21.4679 92.5271 37.0704 64.7986 64.799C37.0701 92.5275 21.4676 130.119 21.4116 169.333C21.4676 208.547 37.0701 246.139 64.7986 273.868C92.5271 301.596 130.119 317.199 169.333 317.255C208.547 317.199 246.139 301.596 273.867 273.868C301.596 246.139 317.198 208.547 317.254 169.333C317.198 130.119 301.596 92.5275 273.867 64.799C246.139 37.0704 208.547 21.4679 169.333 21.4119Z" fill="#B3D57B" stroke="#B3D57B" stroke-width="4" stroke-miterlimit="10"/>
<path d="M181.278 55.7367L168.178 68.8367L218.837 119.496L231.937 106.396L181.278 55.7367Z" fill="#B3D57B" stroke="#B3D57B" stroke-width="4" stroke-miterlimit="10"/>
<path d="M118.44 55.7635L67.7812 106.422L80.8813 119.522L131.54 68.8636L118.44 55.7635Z" fill="#B3D57B" stroke="#B3D57B" stroke-width="4" stroke-miterlimit="10"/>
</svg>
