<svg width="404" height="403" viewBox="0 0 404 403" fill="none" xmlns="http://www.w3.org/2000/svg">
<path d="M202 399.213C149.529 399.158 99.2238 378.29 62.1217 341.188C25.0196 304.086 4.15179 253.781 4.09729 201.311C4.17599 148.856 25.0545 98.574 62.154 61.4917C99.2534 24.4094 149.545 3.55414 202 3.49969C254.47 3.55419 304.775 24.422 341.877 61.5241C378.979 98.6262 399.847 148.932 399.902 201.402C399.823 253.856 378.945 304.138 341.845 341.221C304.746 378.303 254.454 399.158 202 399.213ZM202 25.4355C155.375 25.502 110.679 44.053 77.7106 77.0216C44.7421 109.99 26.1911 154.686 26.1246 201.311C26.1911 247.935 44.7421 292.631 77.7106 325.599C110.679 358.568 155.375 377.119 202 377.186C248.624 377.119 293.32 358.568 326.289 325.599C359.257 292.631 377.808 247.935 377.875 201.311C377.802 154.69 359.248 110 326.28 77.0364C293.313 44.0728 248.62 25.5249 202 25.4584V25.4355Z" fill="#B3D57B" stroke="#B3D57B" stroke-width="4" stroke-miterlimit="10"/>
<path d="M268.197 66.2909L207.964 126.523L223.54 142.099L283.772 81.8665L268.197 66.2909Z" fill="#B3D57B" stroke="#B3D57B" stroke-width="4" stroke-miterlimit="10"/>
<path d="M111.519 66.2841L95.9436 81.8597L156.176 142.092L171.751 126.516L111.519 66.2841Z" fill="#B3D57B" stroke="#B3D57B" stroke-width="4" stroke-miterlimit="10"/>
<path d="M190.129 156.524H187.064C174.813 156.524 163.065 161.389 154.4 170.049C145.736 178.709 140.865 190.455 140.859 202.706V227.409C140.859 239.663 145.727 251.416 154.392 260.081C163.057 268.746 174.809 273.614 187.064 273.614H190.129C196.195 273.614 202.203 272.419 207.807 270.096C213.412 267.774 218.504 264.37 222.792 260.079C227.081 255.789 230.482 250.695 232.802 245.089C235.121 239.484 236.314 233.476 236.311 227.409V202.706C236.311 190.458 231.445 178.711 222.784 170.05C214.123 161.389 202.377 156.524 190.129 156.524ZM215.907 227.432C215.901 234.269 213.184 240.825 208.352 245.662C203.519 250.498 196.966 253.221 190.129 253.233H187.064C180.223 253.227 173.663 250.507 168.826 245.67C163.989 240.832 161.268 234.273 161.262 227.432V202.729C161.268 195.89 163.989 189.333 168.827 184.499C173.665 179.665 180.225 176.95 187.064 176.95H190.129C196.964 176.956 203.517 179.674 208.35 184.507C213.183 189.34 215.901 195.894 215.907 202.729V227.432Z" fill="#B3D57B" stroke="#B3D57B" stroke-width="4" stroke-miterlimit="10"/>
</svg>
